Coordinates
version=1
nRows=26
nColumns=24
inDegrees=yes

Units are S.I. units (second, meters, Newtons, ...)
Angles are in degrees.

endheader
time	pelvis_tilt	pelvis_list	pelvis_rotation	pelvis_tx	pelvis_ty	pelvis_tz	hip_flexion_r	hip_adduction_r	hip_rotation_r	knee_angle_r	ankle_angle_r	subtalar_angle_r	mtp_angle_r	hip_flexion_l	hip_adduction_l	hip_rotation_l	knee_angle_l	ankle_angle_l	subtalar_angle_l	mtp_angle_l	lumbar_extension	lumbar_bending	lumbar_rotation
      6.22500000	     11.92544450	      4.57138897	      0.78034676	      2.55424904	      0.94085438	     -0.29281607	     -1.92171693	     -7.54063262	     -0.64463852	    -63.68181075	      9.20078941	     19.62213657	      0.00000000	     -7.48222066	      8.10079026	     10.90807851	    -10.46030407	     14.17850799	     -5.34070122	      0.00000000	    -26.93218034	     -6.61171023	     -2.53073417
      6.23000000	     11.93592234	      4.31648278	      0.98758803	      2.56022155	      0.94161344	     -0.29330297	     -1.20105517	     -7.22472919	     -0.75724958	    -63.46519796	     10.34643226	     19.37410593	      0.00000000	     -8.10361344	      7.76262097	     10.99359889	    -10.03126223	     14.33312752	     -5.14457202	      0.00000000	    -26.92100435	     -6.19370541	     -2.94702162
      6.23500000	     11.95588442	      4.05900199	      1.23044085	      2.56610504	      0.94233451	     -0.29383944	     -0.50552631	     -6.91017625	     -0.91902102	    -63.16347592	     11.45195652	     19.07947935	      0.00000000	     -8.71566750	      7.41675294	     11.08875182	     -9.62925704	     14.49839117	     -4.95123769	      0.00000000	    -26.94187176	     -5.74844317	     -3.43741150
      6.24000000	     11.97102928	      3.80790734	      1.47765748	      2.57203534	      0.94301034	     -0.29436796	      0.17318767	     -6.60574981	     -1.09641294	    -62.77196952	     12.52186201	     18.75314098	      0.00000000	     -9.32997082	      7.07253346	     11.19786135	     -9.21096944	     14.64475716	     -4.77395799	      0.00000000	    -26.94158333	     -5.31747875	     -3.90978945
      6.24500000	     11.96009890	      3.55803873	      1.70546655	      2.57800776	      0.94362535	     -0.29484028	      0.86589080	     -6.30194050	     -1.25673348	    -62.29675019	     13.53867283	     18.38439851	      0.00000000	     -9.92335788	      6.72588795	     11.28594460	     -8.77188150	     14.74496160	     -4.60145920	      0.00000000	    -26.89667331	     -4.90927776	     -4.32901662
      6.25000000	     12.00313159	      3.33125496	      2.03443157	      2.58388976	      0.94422254	     -0.29546024	      1.46150262	     -6.03824815	     -1.54628977	    -61.73007837	     14.52720669	     18.00238112	      0.00000000	    -10.54868764	      6.38720642	     11.44439153	     -8.38283917	     14.92138867	     -4.39550577	      0.00000000	    -26.93653056	     -4.46592323	     -4.92659808
      6.25500000	     12.01988614	      3.08643321	      2.32038325	      2.58977683	      0.94476026	     -0.29600499	      2.07975552	     -5.75227247	     -1.79000735	    -61.08238460	     15.44704788	     17.55305945	      0.00000000	    -11.14389262	      6.03253744	     11.55122736	     -7.98369022	     15.03873691	     -4.22241553	      0.00000000	    -26.94039626	     -4.02711397	     -5.43952480
      6.26000000	     11.99693231	      2.83537301	      2.55630825	      2.59564550	      0.94518941	     -0.29648063	      2.74265205	     -5.45921077	     -1.98234014	    -60.37092834	     16.29504735	     17.02957114	      0.00000000	    -11.68699282	      5.68185778	     11.59958153	     -7.59262548	     15.17030549	     -4.08979767	      0.00000000	    -26.89417976	     -3.60788070	     -5.90013747
      6.26500000	     12.02570180	      2.62004852	      2.90567524	      2.60151696	      0.94563844	     -0.29708288	      3.29035595	     -5.21738707	     -2.30236801	    -59.55137843	     17.12076495	     16.54278157	      0.00000000	    -12.27895140	      5.33840342	     11.75298418	     -7.21809851	     15.29501046	     -3.87889085	      0.00000000	    -26.91246445	     -3.17514102	     -6.49824454
      6.27000000	     12.02778041	      2.39387424	      3.19954009	      2.60738777	      0.94600272	     -0.29758008	      3.86402116	     -4.95684364	     -2.55909820	    -58.66298203	     17.86814545	     15.97734517	      0.00000000	    -12.83877398	      4.99169798	     11.85147475	     -6.84021962	     15.41051518	     -3.72197055	      0.00000000	    -26.89532028	     -2.76504782	     -7.03166679
      6.27500000	     12.00509706	      2.17207315	      3.45942884	      2.61319276	      0.94627110	     -0.29803047	      4.46080971	     -4.69979463	     -2.77485514	    -57.71271146	     18.56193764	     15.35476059	      0.00000000	    -13.35278035	      4.65977096	     11.92009362	     -6.48990253	     15.52901242	     -3.59721286	      0.00000000	    -26.86130728	     -2.37112912	     -7.53375276
      6.28000000	     12.03119640	      1.97958785	      3.80807308	      2.61908549	      0.94656265	     -0.29858655	      4.94104121	     -4.49188876	     -3.10247828	    -56.65278637	     19.20507987	     14.77072187	      0.00000000	    -13.92898966	      4.32968069	     12.04988620	     -6.12700850	     15.64805081	     -3.43375176	      0.00000000	    -26.86230341	     -1.97280860	     -8.14859579
      6.28500000	     12.02360503	      1.78011817	      4.10025860	      2.62489763	      0.94674961	     -0.29906055	      5.45923828	     -4.27079739	     -3.36310974	    -55.53433335	     19.80014364	     14.11905615	      0.00000000	    -14.44627149	      4.00884875	     12.12131858	     -5.79637045	     15.76381200	     -3.31276444	      0.00000000	    -26.84221713	     -1.59148691	     -8.68021182
      6.29000000	     11.97932301	      1.59755053	      4.32336003	      2.63069294	      0.94682171	     -0.29941262	      6.01600688	     -4.05335171	     -3.52494759	    -54.36645227	     20.31972065	     13.40159445	      0.00000000	    -14.92059012	      3.72285018	     12.17705502	     -5.47176667	     15.88466219	     -3.24735541	      0.00000000	    -26.78097693	     -1.26454153	     -9.17305624
      6.29500000	     12.02649924	      1.43157385	      4.71028502	      2.63654260	      0.94699553	     -0.29997038	      6.38339257	     -3.88348237	     -3.88790046	    -53.05967569	     20.82375721	     12.79575482	      0.00000000	    -15.48753711	      3.40103636	     12.32232100	     -5.15700354	     15.99356724	     -3.08513432	      0.00000000	    -26.81287160	     -0.87973172	     -9.83217291
      6.30000000	     12.03144490	      1.26569893	      4.99944288	      2.64234145	      0.94704571	     -0.30039305	      6.80331937	     -3.69901672	     -4.13207430	    -51.70798565	     21.26658213	     12.10660025	      0.00000000	    -15.99679560	      3.10865529	     12.39699258	     -4.86214686	     16.10030459	     -3.00713440	      0.00000000	    -26.80806278	     -0.53741892	    -10.37548579
      6.30500000	     12.03099235	      1.11557709	      5.28613613	      2.64813368	      0.94703856	     -0.30079136	      7.20021948	     -3.53122190	     -4.36543225	    -50.28435168	     21.65829687	     11.41750080	      0.00000000	    -16.49230627	      2.83163364	     12.47590641	     -4.58242834	     16.21076852	     -2.93313985	      0.00000000	    -26.79836222	     -0.21609795	    -10.92952419
      6.31000000	     12.03482042	      0.97823420	      5.57052236	      2.65392152	      0.94699007	     -0.30116623	      7.56037376	     -3.37519633	     -4.58830305	    -48.78503057	     22.00206749	     10.73103350	      0.00000000	    -16.98491171	      2.56570123	     12.55899750	     -4.31716035	     16.32205191	     -2.87119338	      0.00000000	    -26.79535502	      0.08955868	    -11.48656508
      6.31500000	     12.04102693	      0.85316182	      5.84840437	      2.65970676	      0.94689441	     -0.30151581	      7.88607423	     -3.23028289	     -4.79619150	    -47.21333438	     22.29779288	     10.05086042	      0.00000000	    -17.47288052	      2.31198826	     12.64039391	     -4.06619662	     16.43375711	     -2.82081521	      0.00000000	    -26.79680124	      0.37876300	    -12.03882737
      6.32000000	     12.04592686	      0.74052458	      6.11552088	      2.66548834	      0.94675056	     -0.30183291	      8.18179152	     -3.09568307	     -4.98398745	    -45.57145477	     22.54436284	      9.37657186	      0.00000000	    -17.95162821	      2.07259176	     12.71774592	     -3.83300679	     16.54770015	     -2.78253879	      0.00000000	    -26.79848184	      0.64933893	    -12.58081119
      6.32500000	     12.06780624	      0.64179086	      6.38988661	      2.67126694	      0.94658078	     -0.30214418	      8.41969855	     -2.97595026	     -5.17817314	    -43.85527295	     22.74756837	      8.72694687	      0.00000000	    -18.43905111	      1.84240424	     12.79082383	     -3.61937502	     16.66033375	     -2.75150753	      0.00000000	    -26.82393670	      0.91238114	    -13.13201456
      6.33000000	     12.01940192	      0.56695316	      6.57733459	      2.67698266	      0.94626053	     -0.30232803	      8.73170202	     -2.86758631	     -5.24907744	    -42.10964948	     22.90273953	      8.02326655	      0.00000000	    -18.83362353	      1.67366863	     12.82332591	     -3.44898439	     16.77703294	     -2.77367315	      0.00000000	    -26.79049694	      1.10508491	    -13.58914087
      6.33500000	     12.15603991	      0.50058318	      6.90891303	      2.68278761	      0.94614696	     -0.30269901	      8.74396316	     -2.78127843	     -5.50878796	    -40.22751423	     23.00590329	      7.45674454	      0.00000000	    -19.43726845	      1.43920722	     12.94521263	     -3.25052579	     16.87401262	     -2.74189187	      0.00000000	    -26.94202532	      1.37661544	    -14.22209015
      6.34000000	     12.07710906	      0.43989908	      7.08070201	      2.68859139	      0.94570716	     -0.30283746	      9.00945721	     -2.68763846	     -5.55028365	    -38.35370388	     23.05942621	      6.83273184	      0.00000000	    -19.79229337	      1.28945556	     12.95194724	     -3.10916545	     17.00792257	     -2.73756226	      0.00000000	    -26.86159334	      1.54321414	    -14.64386761
      6.34500000	     12.15950748	      0.39206707	      7.38462937	      2.69446025	      0.94543917	     -0.30315225	      9.00974360	     -2.62189762	     -5.77549241	    -36.36508450	     23.05739409	      6.34385102	      0.00000000	    -20.32370988	      1.08322477	     13.03535731	     -2.95394934	     17.13194790	     -2.67231152	      0.00000000	    -26.94548885	      1.78046577	    -15.23714708
      6.35000000	     12.09457235	      0.39318450	      7.52197925	      2.70027050	      0.94491036	     -0.30319932	      9.19470702	     -2.57935915	     -5.74926909	    -34.40868783	     22.98440559	      5.74044360	      0.00000000	    -20.68984781	      1.00082951	     13.06245363	     -2.83963708	     17.25875117	     -2.71261115	      0.00000000	    -26.89020264	      1.86798929	    -15.65206634
